<svg xmlns="http://www.w3.org/2000/svg" viewBox="0 0 24 30" fill="none" x="0px" y="0px"><path fill-rule="evenodd" clip-rule="evenodd" d="M15.4697 7.46971C15.7626 7.17682 16.2374 7.17682 16.5303 7.46971L20.5303 11.4697C20.8232 11.7626 20.8232 12.2375 20.5303 12.5304L16.5303 16.5304C16.2374 16.8233 15.7626 16.8233 15.4697 16.5304C15.1768 16.2375 15.1768 15.7626 15.4697 15.4697L18.9393 12L15.4697 8.53037C15.1768 8.23748 15.1768 7.76261 15.4697 7.46971Z" fill="black"/><path fill-rule="evenodd" clip-rule="evenodd" d="M8.53033 7.46971C8.23744 7.17682 7.76256 7.17682 7.46967 7.46971L3.46967 11.4697C3.17678 11.7626 3.17678 12.2375 3.46967 12.5304L7.46967 16.5304C7.76256 16.8233 8.23744 16.8233 8.53033 16.5304C8.82322 16.2375 8.82322 15.7626 8.53033 15.4697L5.06066 12L8.53033 8.53037C8.82322 8.23748 8.82322 7.76261 8.53033 7.46971Z" fill="black"/><path fill-rule="evenodd" clip-rule="evenodd" d="M13.1662 5.76869C13.5701 5.86049 13.8231 6.26234 13.7313 6.66626L11.2313 17.6663C11.1396 18.0702 10.7377 18.3232 10.3338 18.2314C9.92987 18.1396 9.67685 17.7377 9.76865 17.3338L12.2687 6.33383C12.3604 5.92991 12.7623 5.67689 13.1662 5.76869Z" fill="black"/><text x="0" y="39" fill="#000000" font-size="5px" font-weight="bold" font-family="'Helvetica Neue', Helvetica, Arial-Unicode, Arial, Sans-serif">Created by Svetlana Samoilova</text><text x="0" y="44" fill="#000000" font-size="5px" font-weight="bold" font-family="'Helvetica Neue', Helvetica, Arial-Unicode, Arial, Sans-serif">from the Noun Project</text></svg>